{
  "accessors": [
    {
      "bufferView": 2,
      "componentType": 5126,
      "count": 3012,
      "max": [
        1.6201980113983154,
        2.1091010570526123,
        3.1823849678039551
      ],
      "min": [
        -1.6201980113983154,
        -2.7635109424591064,
        0.018648000434041023
      ],
      "type": "VEC3"
    },
    {
      "bufferView": 2,
      "byteOffset": 36144,
      "componentType": 5126,
      "count": 3012,
      "max": [
        1,
        0.99999594688415527,
        0.99998903274536133
      ],
      "min": [
        -1,
        -0.99999868869781494,
        -0.99998486042022705
      ],
      "type": "VEC3"
    },
    {
      "bufferView": 0,
      "componentType": 5125,
      "count": 7056,
      "max": [
        3011
      ],
      "min": [
        0
      ],
      "type": "SCALAR"
    },
    {
      "bufferView": 2,
      "byteOffset": 72288,
      "componentType": 5126,
      "count": 3350,
      "max": [
        1.6031290292739868,
        2.0880749225616455,
        3.1548299789428711
      ],
      "min": [
        -1.6031290292739868,
        -2.7392361164093018,
        0.038927000015974045
      ],
      "type": "VEC3"
    },
    {
      "bufferView": 2,
      "byteOffset": 112488,
      "componentType": 5126,
      "count": 3350,
      "max": [
        1,
        0.99998438358306885,
        0.99998438358306885
      ],
      "min": [
        -1,
        -0.99998438358306885,
        -0.99998438358306885
      ],
      "type": "VEC3"
    },
    {
      "bufferView": 3,
      "componentType": 5126,
      "count": 3350,
      "max": [
        1,
        0.99998468160629272,
        0.99999618530273438,
        1
      ],
      "min": [
        -1,
        -0.99999994039535522,
        -0.99998503923416138,
        -1
      ],
      "type": "VEC4"
    },
    {
      "bufferView": 1,
      "componentType": 5126,
      "count": 3350,
      "max": [
        0.99241501092910767,
        0.99227899312973022
      ],
      "min": [
        0.0075790002010762691,
        0.0075790002010762691
      ],
      "type": "VEC2"
    },
    {
      "bufferView": 0,
      "byteOffset": 28224,
      "componentType": 5125,
      "count": 7056,
      "max": [
        3349
      ],
      "min": [
        0
      ],
      "type": "SCALAR"
    }
  ],
  "asset": {
    "extras": {
      "author": "makcutka250 (https://sketchfab.com/makcutka250)",
      "license": "CC-BY-4.0 (http://creativecommons.org/licenses/by/4.0/)",
      "source": "https://sketchfab.com/models/bb4be3e59cf84ee4b842da57d97cf1ce",
      "title": "Stylized Tank"
    },
    "generator": "Sketchfab-4.10.1",
    "version": "2.0"
  },
  "bufferViews": [
    {
      "buffer": 0,
      "byteLength": 56448,
      "byteOffset": 0,
      "name": "floatBufferViews",
      "target": 34963
    },
    {
      "buffer": 0,
      "byteLength": 26800,
      "byteOffset": 56448,
      "byteStride": 8,
      "name": "floatBufferViews",
      "target": 34962
    },
    {
      "buffer": 0,
      "byteLength": 152688,
      "byteOffset": 83248,
      "byteStride": 12,
      "name": "floatBufferViews",
      "target": 34962
    },
    {
      "buffer": 0,
      "byteLength": 53600,
      "byteOffset": 235936,
      "byteStride": 16,
      "name": "floatBufferViews",
      "target": 34962
    }
  ],
  "buffers": [
    {
      "byteLength": 289536,
      "uri": "scene.bin"
    }
  ],
  "images": [
    {
      "uri": "textures/material_0_baseColor.png"
    }
  ],
  "materials": [
    {
      "doubleSided": true,
      "name": "material_0",
      "pbrMetallicRoughness": {
        "baseColorFactor": [
          1,
          1,
          1,
          1
        ],
        "baseColorTexture": {
          "index": 0,
          "texCoord": 0
        },
        "metallicFactor": 0,
        "roughnessFactor": 0.59999999999999998
      }
    },
    {
      "doubleSided": false,
      "name": "material_1",
      "pbrMetallicRoughness": {
        "baseColorFactor": [
          0.0077261005999999998,
          0,
          0,
          1
        ],
        "metallicFactor": 0,
        "roughnessFactor": 0.59999999999999998
      }
    }
  ],
  "meshes": [
    {
      "primitives": [
        {
          "attributes": {
            "NORMAL": 1,
            "POSITION": 0
          },
          "indices": 2,
          "material": 1,
          "mode": 4
        }
      ]
    },
    {
      "primitives": [
        {
          "attributes": {
            "NORMAL": 4,
            "POSITION": 3,
            "TANGENT": 5,
            "TEXCOORD_0": 6
          },
          "indices": 7,
          "material": 0,
          "mode": 4
        }
      ]
    }
  ],
  "nodes": [
    {
      "children": [
        1
      ],
      "name": "RootNode (gltf orientation matrix)",
      "rotation": [
        -0.70710678118654746,
        -0,
        -0,
        0.70710678118654757
      ]
    },
    {
      "children": [
        2
      ],
      "name": "RootNode (model correction matrix)"
    },
    {
      "children": [
        3,
        5
      ],
      "name": "zbrush_concat.osgb.cleaner.materialmerger.gles"
    },
    {
      "children": [
        4
      ],
      "name": "/sketchfab-data/processing/urls/1913ab1c592b40989c6a7bfe5fb97cfb/preprocess/tankoutline.obj"
    },
    {
      "mesh": 0,
      "name": ""
    },
    {
      "children": [
        6
      ],
      "name": "/sketchfab-data/processing/urls/1913ab1c592b40989c6a7bfe5fb97cfb/preprocess/tank.obj"
    },
    {
      "mesh": 1,
      "name": ""
    }
  ],
  "samplers": [
    {
      "magFilter": 9729,
      "minFilter": 9987,
      "wrapS": 10497,
      "wrapT": 10497
    }
  ],
  "scene": 0,
  "scenes": [
    {
      "name": "OSG_Scene",
      "nodes": [
        0
      ]
    }
  ],
  "textures": [
    {
      "sampler": 0,
      "source": 0
    }
  ]
}

